<?xml version="1.0" encoding="iso-8859-1"?>
<!-- Uploaded to: SVG Repo, www.svgrepo.com, Generator: SVG Repo Mixer Tools -->
<!DOCTYPE svg PUBLIC "-//W3C//DTD SVG 1.1//EN" "http://www.w3.org/Graphics/SVG/1.1/DTD/svg11.dtd">
<svg fill="#ffffff" height="800px" width="800px" version="1.1" id="Capa_1" xmlns="http://www.w3.org/2000/svg" xmlns:xlink="http://www.w3.org/1999/xlink" 
	 viewBox="0 0 392.619 392.619" xml:space="preserve">
<g>
	<path d="M310.723,0.929H81.896C36.738,0.929,0,37.667,0,82.825v226.969c0,45.158,36.738,81.896,81.896,81.896h228.827
		c45.158,0,81.896-36.738,81.896-81.896V82.825C392.619,37.667,355.881,0.929,310.723,0.929z M362.619,309.794
		c0,28.616-23.28,51.896-51.896,51.896H81.896C53.28,361.69,30,338.41,30,309.794V82.825c0-28.615,23.28-51.896,51.896-51.896
		h228.827c28.616,0,51.896,23.28,51.896,51.896V309.794z"/>
	<path d="M211.056,105.476h-81.993v35h10.334v111.667h-10.334v35h81.993c29.868,0,54.167-24.299,54.167-54.167
		c0-14.132-5.445-27.012-14.341-36.667c8.896-9.655,14.341-22.535,14.341-36.667C265.223,129.775,240.924,105.476,211.056,105.476z
		 M211.056,140.476c10.568,0,19.167,8.598,19.167,19.167c0,10.568-8.599,19.167-19.167,19.167h-36.659v-38.333H211.056z
		 M211.056,252.143h-36.659V213.81h36.659c10.568,0,19.167,8.598,19.167,19.167C230.223,243.545,221.624,252.143,211.056,252.143z"
		/>
</g>
</svg>