<?xml version="1.0" encoding="iso-8859-1"?>
<!-- Uploaded to: SVG Repo, www.svgrepo.com, Generator: SVG Repo Mixer Tools -->
<svg fill="#ffffff" height="800px" width="800px" version="1.1" id="Layer_1" xmlns="http://www.w3.org/2000/svg" xmlns:xlink="http://www.w3.org/1999/xlink" 
	 viewBox="0 0 511.867 511.867" xml:space="preserve">
<g>
	<g>
		<path d="M508.827,350.027L263.493,104.373c-4.267-4.053-10.88-4.053-15.147,0L3.12,350.027c-4.16,4.16-4.16,10.88,0,15.04
			l42.24,42.347c4.267,4.053,10.88,4.053,15.147,0L255.92,211.68l195.52,195.733c4.16,4.16,10.88,4.16,15.04,0l42.347-42.347
			C512.88,360.907,512.88,354.187,508.827,350.027z M459.013,384.8l-195.52-195.733c-4.16-4.16-10.88-4.16-15.04,0L52.933,384.8
			l-27.2-27.307L255.92,126.987l230.293,230.507L459.013,384.8z"/>
	</g>
</g>
</svg>